<svg width="24" height="18" viewBox="0 0 24 18" fill="none" xmlns="http://www.w3.org/2000/svg">
<path d="M18.4178 6.88282C17.73 7.99957 16.5938 8.60482 15.426 8.73757C11.199 9.22282 9.37877 4.58932 11.9573 2.01157C14.2703 -0.301429 19.0395 1.10857 18.9653 4.90957C18.9533 5.51932 18.7973 6.26557 18.4185 6.88282H18.4178ZM11.9573 4.85482C12.102 8.44882 16.7235 8.53507 17.6453 5.90557C18.4613 3.58582 16.5233 1.71082 14.4533 2.01157C12.9345 2.22982 11.9025 3.42157 11.9573 4.85482ZM23.121 3.00382C23.406 2.87107 23.82 2.58982 23.961 2.75782C24.1718 3.00757 23.4998 3.22957 23.211 3.42157C22.293 4.01932 21.48 4.64782 20.7338 5.46832C19.7768 6.52657 18.789 7.84732 18.1838 9.28807C18.8048 9.31882 21.207 9.44407 21.7845 10.7693C22.2495 11.8313 21.3975 12.9256 20.4645 13.3943C21.1283 13.8083 22.2728 14.3393 22.2105 15.2926C22.0508 17.6363 18.5153 17.5343 17.0303 15.9878C16.788 15.6991 16.6755 15.5078 16.7805 15.4096C16.9335 15.2768 17.1083 15.5978 17.4563 15.8866C17.6835 16.0733 17.835 16.1363 18.03 16.2413C19.3313 16.9253 21.366 16.6441 21.507 15.4486C21.5693 14.8943 20.8433 14.4916 20.2883 14.2456C19.7925 14.0198 18.7763 13.8586 18.7965 13.2923C18.8153 12.7373 19.3193 12.8431 19.8278 12.6443C20.379 12.4253 20.832 11.7413 20.8275 11.5261C20.8238 10.6201 18.7695 10.6403 17.6085 10.6043C17.3355 11.2141 17.1368 11.8313 16.9178 12.7651C16.7768 13.3471 16.7655 14.6588 16.1678 14.7923C15.4335 14.9566 15.156 14.3153 14.715 13.8046C14.121 13.1123 13.2773 12.1636 12.7733 11.5778C9.73802 12.5821 7.37927 13.6718 4.51652 15.2926C3.20327 16.0343 2.45327 16.8826 1.97327 16.6448C1.57427 16.4528 1.63352 16.0118 1.82402 15.7576C2.21927 15.2378 2.75027 14.5343 3.21902 13.8706C3.81977 13.0223 4.27277 12.2026 4.59377 11.4256C5.28452 9.73732 5.82377 6.70657 6.06602 5.56582C6.15602 5.15557 6.37877 5.21857 6.39077 5.41807C6.41777 5.84032 6.15152 7.46482 6.10202 7.80082C5.66402 10.5818 5.32802 12.2108 4.08977 14.1518C6.28502 12.7928 8.89502 11.1331 11.6835 10.1948C8.84777 6.93757 5.84777 3.85207 1.67552 1.90582C1.03427 1.54282 -0.000732422 1.46482 -0.000732422 1.21882C-0.000732422 0.948821 0.780018 1.15957 1.04252 1.22707C3.42527 1.82407 5.85827 3.36682 7.64477 4.67182C9.78902 6.23782 12.3585 8.63707 13.3238 9.75382C13.98 9.52657 15.609 9.29707 17.0198 9.25807C17.7698 7.67632 19.5698 5.23807 21.8085 3.81232C22.2188 3.55132 22.6478 3.21907 23.1203 3.00457L23.121 3.00382ZM14.5268 11.0738C14.9528 11.5036 15.27 12.0076 15.6405 12.4726C15.8115 11.8823 16.0425 11.2576 16.2803 10.7146C15.663 10.7963 15 10.9178 14.5268 11.0738Z" fill="#FCFCFC"/>
</svg>
