<svg width="22" height="20" viewBox="0 0 22 20" fill="none" xmlns="http://www.w3.org/2000/svg">
<path fill-rule="evenodd" clip-rule="evenodd" d="M2.8065 3.20659C3.70663 2.30673 4.92731 1.80122 6.2001 1.80122C7.47288 1.80122 8.69356 2.30673 9.5937 3.20659L11.0001 4.61179L12.4065 3.20659C12.8493 2.74815 13.3789 2.38247 13.9646 2.13091C14.5502 1.87934 15.18 1.74693 15.8174 1.74139C16.4547 1.73585 17.0868 1.8573 17.6767 2.09865C18.2666 2.34 18.8025 2.69641 19.2532 3.1471C19.7039 3.59778 20.0603 4.13371 20.3016 4.72361C20.543 5.31352 20.6644 5.94558 20.6589 6.58292C20.6534 7.22026 20.5209 7.85012 20.2694 8.43574C20.0178 9.02136 19.6521 9.55101 19.1937 9.99379L11.0001 18.1886L2.8065 9.99379C1.90664 9.09366 1.40112 7.87298 1.40112 6.60019C1.40112 5.32741 1.90664 4.10673 2.8065 3.20659V3.20659Z" stroke="#5F4B32" stroke-width="2" stroke-linejoin="round"/>
</svg>
