<?xml version="1.0" encoding="UTF-8" standalone="no"?>
<!DOCTYPE svg PUBLIC "-//W3C//DTD SVG 1.1//EN" "http://www.w3.org/Graphics/SVG/1.1/DTD/svg11.dtd">
<svg width="100%" height="100%" viewBox="0 0 1216 287" version="1.1" xmlns="http://www.w3.org/2000/svg" xmlns:xlink="http://www.w3.org/1999/xlink" xml:space="preserve" xmlns:serif="http://www.serif.com/" style="fill-rule:evenodd;clip-rule:evenodd;stroke-linejoin:round;stroke-miterlimit:2;" aria-labelledby="logoText" role="img">
    <title id="logoText">Logo Acervo Amaranto</title>
    <g id="Artboard1" transform="matrix(0.989655,0,0,0.990927,15.306,0.667437)">
        <rect x="-15.466" y="-0.674" width="1228.57" height="289.379" style="fill:none;"/>
        <g transform="matrix(1.25007,0,0,1.02948,-1011.65,-834.826)">
            <path d="M1251.16,1060.12L1251.16,1058.62C1252.73,1058.42 1254.32,1057.5 1255.92,1055.85C1257.53,1054.2 1259.04,1052.12 1260.44,1049.62C1261.84,1047.12 1262.91,1044.67 1263.65,1042.27L1296.31,945.373L1297.42,945.373L1329.58,1042.27C1333.21,1053.17 1337.25,1058.62 1341.7,1058.62L1342.07,1058.62L1342.07,1060.12L1302.49,1060.12L1302.49,1058.62L1302.99,1058.62C1306.7,1058.62 1309.19,1057.25 1310.47,1054.5C1311.75,1051.75 1311.56,1047.92 1309.91,1043.02L1302.49,1020.67L1272.68,1020.67L1265.76,1041.52C1264.27,1045.82 1264.46,1049.7 1266.31,1053.15C1268.17,1056.6 1271.16,1058.42 1275.28,1058.62L1275.28,1060.12L1251.16,1060.12ZM1273.3,1018.72L1301.88,1018.72L1287.77,975.523L1273.3,1018.72Z" style="fill:rgb(35,31,32);fill-rule:nonzero;"/>
            <path d="M1373.17,1061.55L1349.71,996.318L1345.77,1049.76C1345.55,1052.47 1346.19,1054.67 1347.7,1056.36C1349.21,1058.06 1351.05,1058.97 1353.23,1059.11L1353.23,1060.12L1336.47,1060.12L1336.47,1059.11C1338.59,1058.97 1340.38,1058.02 1341.83,1056.26C1343.29,1054.5 1344.12,1052.3 1344.35,1049.66L1348.54,993.473C1347.48,990.831 1346.15,988.749 1344.56,987.225C1342.96,985.701 1340.91,984.939 1338.4,984.939L1338.4,983.923L1358.51,983.923L1378.95,1041.33L1399.39,983.923L1415.06,983.923L1415.06,984.939C1413.27,984.939 1411.76,985.582 1410.53,986.869C1409.3,988.156 1408.75,989.917 1408.86,992.152L1413.13,1052.3C1413.41,1054.6 1414.32,1056.33 1415.85,1057.48C1417.39,1058.63 1418.91,1059.21 1420.42,1059.21L1420.42,1060.12L1394.45,1060.12L1394.45,1059.21C1395.4,1059.21 1396.37,1058.94 1397.38,1058.39C1398.38,1057.85 1399.21,1057.08 1399.85,1056.06C1400.49,1055.04 1400.73,1053.86 1400.56,1052.5L1396.46,996.419L1373.17,1061.55Z" style="fill:rgb(35,31,32);fill-rule:nonzero;"/>
            <path d="M1416.31,1060.12L1416.31,1059.11C1417.37,1058.97 1418.45,1058.35 1419.54,1057.23C1420.63,1056.11 1421.65,1054.7 1422.6,1053.01C1423.55,1051.32 1424.27,1049.66 1424.78,1048.03L1446.89,982.399L1447.65,982.399L1469.43,1048.03C1471.89,1055.41 1474.62,1059.11 1477.64,1059.11L1477.89,1059.11L1477.89,1060.12L1451.08,1060.12L1451.08,1059.11L1451.42,1059.11C1453.93,1059.11 1455.62,1058.17 1456.49,1056.31C1457.35,1054.45 1457.23,1051.86 1456.11,1048.54L1451.08,1033.4L1430.89,1033.4L1426.2,1047.52C1425.19,1050.44 1425.32,1053.06 1426.58,1055.4C1427.83,1057.74 1429.86,1058.97 1432.65,1059.11L1432.65,1060.12L1416.31,1060.12ZM1431.31,1032.08L1450.66,1032.08L1441.11,1002.82L1431.31,1032.08Z" style="fill:rgb(35,31,32);fill-rule:nonzero;"/>
            <path d="M1474.76,1060.12L1474.76,1059.11C1476.77,1059.11 1478.39,1058.36 1479.62,1056.87C1480.85,1055.38 1481.46,1053.42 1481.46,1050.98L1481.46,993.067C1481.46,990.628 1480.85,988.664 1479.62,987.174C1478.39,985.684 1476.77,984.939 1474.76,984.939L1474.76,983.923L1502.75,983.923C1506.77,983.923 1510.27,984.752 1513.26,986.412C1516.25,988.071 1518.57,990.374 1520.21,993.321C1521.86,996.267 1522.68,999.705 1522.68,1003.63C1522.68,1008.58 1521.43,1012.81 1518.91,1016.33C1516.4,1019.86 1512.99,1021.99 1508.69,1022.73C1509.64,1023.07 1510.77,1024.09 1512.09,1025.78C1513.4,1027.47 1514.67,1029.58 1515.9,1032.08L1526.45,1054.03C1527.24,1055.59 1528.17,1056.82 1529.26,1057.74C1530.35,1058.65 1531.56,1059.11 1532.9,1059.11L1532.9,1060.12L1515.56,1060.12C1514.78,1058.57 1513.96,1056.87 1513.09,1055.04C1512.23,1053.21 1511.43,1051.52 1510.7,1049.96L1502.49,1031.67C1501.49,1029.44 1500.64,1027.69 1499.94,1026.44C1499.24,1025.19 1498.54,1024.33 1497.84,1023.85C1497.14,1023.38 1496.27,1023.14 1495.2,1023.14L1494.37,1023.14L1494.37,1050.98C1494.37,1053.42 1494.98,1055.38 1496.21,1056.87C1497.44,1058.36 1499.06,1059.11 1501.07,1059.11L1501.24,1059.11L1501.24,1060.12L1474.76,1060.12ZM1494.37,1021.82L1498.64,1021.82C1502.27,1021.82 1505.16,1020.13 1507.31,1016.74C1509.46,1013.35 1510.54,1008.95 1510.54,1003.53C1510.54,998.045 1509.5,993.625 1507.44,990.273C1505.37,986.92 1502.63,985.243 1499.23,985.243L1494.37,985.243L1494.37,1021.82Z" style="fill:rgb(35,31,32);fill-rule:nonzero;"/>
            <path d="M1528.8,1060.12L1528.8,1059.11C1529.86,1058.97 1530.94,1058.35 1532.03,1057.23C1533.11,1056.11 1534.13,1054.7 1535.08,1053.01C1536.03,1051.32 1536.76,1049.66 1537.26,1048.03L1559.38,982.399L1560.13,982.399L1581.91,1048.03C1584.37,1055.41 1587.11,1059.11 1590.13,1059.11L1590.38,1059.11L1590.38,1060.12L1563.57,1060.12L1563.57,1059.11L1563.9,1059.11C1566.42,1059.11 1568.11,1058.17 1568.97,1056.31C1569.84,1054.45 1569.71,1051.86 1568.6,1048.54L1563.57,1033.4L1543.38,1033.4L1538.69,1047.52C1537.68,1050.44 1537.81,1053.06 1539.06,1055.4C1540.32,1057.74 1542.34,1058.97 1545.14,1059.11L1545.14,1060.12L1528.8,1060.12ZM1543.8,1032.08L1563.15,1032.08L1553.6,1002.82L1543.8,1032.08Z" style="fill:rgb(35,31,32);fill-rule:nonzero;"/>
            <path d="M1641.43,1061.55L1597.53,993.676C1597.14,993.067 1596.71,992.457 1596.24,991.847C1595.76,991.238 1595.33,990.73 1594.94,990.323L1594.94,1048.44C1594.94,1051.35 1595.66,1053.86 1597.12,1055.96C1598.57,1058.06 1600.49,1059.11 1602.9,1059.11L1602.9,1060.12L1585.47,1060.12L1585.47,1059.11C1587.93,1059.11 1589.88,1058.06 1591.33,1055.96C1592.79,1053.86 1593.51,1051.32 1593.51,1048.34L1593.51,988.901C1591,986.598 1588.35,985.277 1585.55,984.939L1585.55,983.923L1607.09,983.923L1640.01,1035.43L1640.01,995.607C1640.01,992.694 1639.28,990.188 1637.83,988.088C1636.38,985.989 1634.45,984.939 1632.05,984.939L1632.05,983.923L1649.39,983.923L1649.39,984.939C1646.99,984.939 1645.06,985.989 1643.61,988.088C1642.16,990.188 1641.43,992.694 1641.43,995.607L1641.43,1061.55Z" style="fill:rgb(35,31,32);fill-rule:nonzero;"/>
            <path d="M1664.02,1060.12L1664.1,1059.11L1664.19,1059.11C1666.2,1059.11 1667.82,1058.36 1669.05,1056.87C1670.27,1055.38 1670.89,1053.42 1670.89,1050.98L1670.89,985.345L1668.46,985.345C1665.72,985.345 1663.04,985.87 1660.42,986.92C1657.79,987.97 1655.53,989.866 1653.63,992.609C1651.73,995.353 1650.45,999.298 1649.78,1004.45L1648.94,1004.45L1651.28,983.923L1703.48,983.923L1705.91,1004.45L1705.07,1004.45C1704.4,999.366 1703.1,995.437 1701.17,992.66C1699.25,989.883 1696.96,987.97 1694.3,986.92C1691.65,985.87 1688.9,985.345 1686.05,985.345L1683.87,985.345L1683.87,1050.98C1683.87,1053.42 1684.49,1055.38 1685.72,1056.87C1686.95,1058.36 1688.57,1059.11 1690.58,1059.11L1690.66,1060.12L1664.02,1060.12Z" style="fill:rgb(35,31,32);fill-rule:nonzero;"/>
            <path d="M1739.11,1061.55C1732.4,1061.55 1726.53,1059.9 1721.47,1056.62C1716.42,1053.33 1712.48,1048.73 1709.66,1042.8C1706.84,1036.87 1705.43,1029.95 1705.43,1022.02C1705.43,1014.1 1706.84,1007.17 1709.66,1001.25C1712.48,995.319 1716.42,990.713 1721.47,987.428C1726.53,984.143 1732.4,982.5 1739.11,982.5C1745.81,982.5 1751.69,984.143 1756.74,987.428C1761.8,990.713 1765.74,995.319 1768.56,1001.25C1771.38,1007.17 1772.79,1014.1 1772.79,1022.02C1772.79,1029.95 1771.38,1036.87 1768.56,1042.8C1765.74,1048.73 1761.8,1053.33 1756.74,1056.62C1751.69,1059.9 1745.81,1061.55 1739.11,1061.55ZM1739.11,1059.92C1742.01,1059.92 1744.66,1059.01 1747.07,1057.18C1749.47,1055.35 1751.54,1052.77 1753.27,1049.45C1754.94,1046.14 1756.24,1042.14 1757.16,1037.47C1758.08,1032.79 1758.54,1027.61 1758.54,1021.92C1758.54,1016.23 1758.08,1011.03 1757.16,1006.33C1756.24,1001.62 1754.94,997.605 1753.27,994.286C1751.54,990.967 1749.47,988.393 1747.07,986.564C1744.66,984.735 1742.01,983.821 1739.11,983.821C1736.2,983.821 1733.55,984.735 1731.15,986.564C1728.75,988.393 1726.71,990.967 1725.03,994.286C1723.3,997.605 1721.98,1001.62 1721.05,1006.33C1720.13,1011.03 1719.67,1016.23 1719.67,1021.92C1719.67,1027.61 1720.13,1032.79 1721.05,1037.47C1721.98,1042.14 1723.3,1046.14 1725.03,1049.45C1726.71,1052.77 1728.75,1055.35 1731.15,1057.18C1733.55,1059.01 1736.2,1059.92 1739.11,1059.92Z" style="fill:rgb(35,31,32);fill-rule:nonzero;"/>
        </g>
        <g transform="matrix(0.884339,0,0,1.02948,-552.965,-968.573)">
            <path d="M1249.93,1060.12L1249.93,1058.62C1252.15,1058.42 1254.39,1057.5 1256.67,1055.85C1258.94,1054.2 1261.07,1052.12 1263.05,1049.62C1265.03,1047.12 1266.54,1044.67 1267.59,1042.27L1313.75,945.373L1315.33,945.373L1360.79,1042.27C1365.91,1053.17 1371.62,1058.62 1377.92,1058.62L1378.44,1058.62L1378.44,1060.12L1322.49,1060.12L1322.49,1058.62L1323.19,1058.62C1328.44,1058.62 1331.96,1057.25 1333.77,1054.5C1335.58,1051.75 1335.32,1047.92 1332.99,1043.02L1322.49,1020.67L1280.36,1020.67L1270.57,1041.52C1268.47,1045.82 1268.73,1049.7 1271.35,1053.15C1273.98,1056.6 1278.2,1058.42 1284.03,1058.62L1284.03,1060.12L1249.93,1060.12ZM1281.23,1018.72L1321.62,1018.72L1301.69,975.523L1281.23,1018.72Z" style="fill:rgb(35,31,32);fill-rule:nonzero;"/>
            <path d="M1429.62,1061.55C1419.36,1061.55 1410.36,1059.9 1402.62,1056.62C1394.88,1053.33 1388.86,1048.71 1384.56,1042.75C1380.26,1036.79 1378.11,1029.85 1378.11,1021.92C1378.11,1013.93 1380.26,1006.99 1384.56,1001.09C1388.86,995.2 1394.96,990.628 1402.86,987.377C1410.75,984.126 1420.11,982.5 1430.92,982.5C1433.53,982.5 1435.7,982.585 1437.44,982.754C1439.17,982.924 1440.79,983.11 1442.29,983.313C1443.79,983.516 1445.51,983.703 1447.44,983.872C1449.38,984.041 1451.81,984.126 1454.73,984.126L1458.28,1004.45L1457.1,1004.45C1456.23,1000.45 1454.51,996.911 1451.94,993.829C1449.38,990.747 1446.18,988.308 1442.35,986.513C1438.52,984.719 1434.28,983.821 1429.62,983.821C1425.04,983.821 1420.82,984.769 1416.95,986.666C1413.08,988.562 1409.76,991.204 1407,994.591C1404.24,998.045 1402.09,1002.16 1400.55,1006.94C1399.01,1011.71 1398.24,1016.94 1398.24,1022.63C1398.24,1030.15 1399.58,1036.7 1402.26,1042.29C1404.95,1047.88 1408.74,1052.21 1413.63,1055.3C1418.53,1058.38 1424.29,1059.92 1430.92,1059.92C1438.5,1059.92 1444.76,1057.97 1449.69,1054.08C1454.63,1050.18 1457.69,1044.75 1458.87,1037.77L1460.06,1037.77L1456.62,1059.72C1452.91,1059.72 1449.63,1059.87 1446.79,1060.17C1443.95,1060.48 1441.21,1060.78 1438.56,1061.09C1435.92,1061.39 1432.94,1061.55 1429.62,1061.55Z" style="fill:rgb(35,31,32);fill-rule:nonzero;"/>
            <path d="M1461.67,1060.12L1461.79,1059.11L1461.91,1059.11C1464.75,1059.11 1467.04,1058.46 1468.78,1057.18C1470.51,1055.89 1471.38,1054.03 1471.38,1051.59L1471.38,993.067C1471.38,990.628 1470.51,988.664 1468.78,987.174C1467.04,985.684 1464.75,984.939 1461.91,984.939L1461.79,983.923L1525.27,983.923L1528.82,1004.34L1527.63,1004.34C1525.27,991.61 1515.91,985.243 1499.57,985.243L1489.62,985.243L1489.62,1014.61L1500.28,1014.61C1504.22,1014.61 1507.38,1013.57 1509.75,1011.51C1512.12,1009.44 1513.3,1006.72 1513.3,1003.33L1514.49,1003.33L1514.49,1028.32L1513.3,1028.32C1513.22,1024.66 1511.88,1021.68 1509.28,1019.38C1506.67,1017.08 1503.24,1015.93 1498.97,1015.93L1489.62,1015.93L1489.62,1051.59C1489.62,1056.4 1492.38,1058.8 1497.91,1058.8L1502.88,1058.8C1510.54,1058.8 1516.62,1057.11 1521.12,1053.72C1525.62,1050.34 1528.5,1045.02 1529.77,1037.77L1530.95,1037.77L1527.4,1060.12L1461.67,1060.12Z" style="fill:rgb(35,31,32);fill-rule:nonzero;"/>
            <path d="M1532.49,1060.12L1532.49,1059.11C1535.33,1059.11 1537.62,1058.36 1539.36,1056.87C1541.09,1055.38 1541.96,1053.42 1541.96,1050.98L1541.96,993.067C1541.96,990.628 1541.09,988.664 1539.36,987.174C1537.62,985.684 1535.33,984.939 1532.49,984.939L1532.49,983.923L1572.04,983.923C1577.73,983.923 1582.68,984.752 1586.91,986.412C1591.13,988.071 1594.41,990.374 1596.74,993.321C1599.06,996.267 1600.23,999.705 1600.23,1003.63C1600.23,1008.58 1598.45,1012.81 1594.9,1016.33C1591.35,1019.86 1586.53,1021.99 1580.45,1022.73C1581.79,1023.07 1583.39,1024.09 1585.25,1025.78C1587.1,1027.47 1588.9,1029.58 1590.64,1032.08L1605.56,1054.03C1606.66,1055.59 1607.99,1056.82 1609.53,1057.74C1611.07,1058.65 1612.78,1059.11 1614.68,1059.11L1614.68,1060.12L1590.16,1060.12C1589.06,1058.57 1587.89,1056.87 1586.67,1055.04C1585.44,1053.21 1584.32,1051.52 1583.29,1049.96L1571.69,1031.67C1570.27,1029.44 1569.06,1027.69 1568.08,1026.44C1567.09,1025.19 1566.1,1024.33 1565.12,1023.85C1564.13,1023.38 1562.88,1023.14 1561.38,1023.14L1560.2,1023.14L1560.2,1050.98C1560.2,1053.42 1561.07,1055.38 1562.81,1056.87C1564.54,1058.36 1566.83,1059.11 1569.67,1059.11L1569.91,1059.11L1569.91,1060.12L1532.49,1060.12ZM1560.2,1021.82L1566.24,1021.82C1571.37,1021.82 1575.46,1020.13 1578.5,1016.74C1581.54,1013.35 1583.06,1008.95 1583.06,1003.53C1583.06,998.045 1581.6,993.625 1578.67,990.273C1575.75,986.92 1571.88,985.243 1567.07,985.243L1560.2,985.243L1560.2,1021.82Z" style="fill:rgb(35,31,32);fill-rule:nonzero;"/>
            <path d="M1637.52,1061.65L1606.72,996.013C1603.33,988.63 1599.5,984.939 1595.24,984.939L1594.88,984.939L1594.88,983.923L1632.78,983.923L1632.78,984.939L1632.3,984.939C1628.67,984.939 1626.26,985.87 1625.08,987.733C1623.9,989.595 1624.09,992.186 1625.67,995.505L1646.75,1041.22L1668.42,995.505C1669.85,992.457 1669.67,989.968 1667.89,988.037C1666.12,986.107 1663.1,985.074 1658.83,984.939L1658.83,983.923L1681.92,983.923L1681.92,984.939C1680.42,985.006 1678.9,985.616 1677.37,986.767C1675.83,987.919 1674.4,989.324 1673.1,990.984C1671.8,992.643 1670.75,994.32 1669.96,996.013L1638.7,1061.65L1637.52,1061.65Z" style="fill:rgb(35,31,32);fill-rule:nonzero;"/>
            <path d="M1718.89,1061.55C1709.41,1061.55 1701.11,1059.9 1693.96,1056.62C1686.82,1053.33 1681.25,1048.73 1677.26,1042.8C1673.28,1036.87 1671.28,1029.95 1671.28,1022.02C1671.28,1014.1 1673.28,1007.17 1677.26,1001.25C1681.25,995.319 1686.82,990.713 1693.96,987.428C1701.11,984.143 1709.41,982.5 1718.89,982.5C1728.36,982.5 1736.67,984.143 1743.82,987.428C1750.96,990.713 1756.53,995.319 1760.52,1001.25C1764.5,1007.17 1766.5,1014.1 1766.5,1022.02C1766.5,1029.95 1764.5,1036.87 1760.52,1042.8C1756.53,1048.73 1750.96,1053.33 1743.82,1056.62C1736.67,1059.9 1728.36,1061.55 1718.89,1061.55ZM1718.89,1059.92C1723,1059.92 1726.75,1059.01 1730.14,1057.18C1733.54,1055.35 1736.46,1052.77 1738.9,1049.45C1741.27,1046.14 1743.11,1042.14 1744.41,1037.47C1745.71,1032.79 1746.36,1027.61 1746.36,1021.92C1746.36,1016.23 1745.71,1011.03 1744.41,1006.33C1743.11,1001.62 1741.27,997.605 1738.9,994.286C1736.46,990.967 1733.54,988.393 1730.14,986.564C1726.75,984.735 1723,983.821 1718.89,983.821C1714.78,983.821 1711.03,984.735 1707.64,986.564C1704.24,988.393 1701.36,990.967 1698.99,994.286C1696.55,997.605 1694.67,1001.62 1693.37,1006.33C1692.07,1011.03 1691.41,1016.23 1691.41,1021.92C1691.41,1027.61 1692.07,1032.79 1693.37,1037.47C1694.67,1042.14 1696.55,1046.14 1698.99,1049.45C1701.36,1052.77 1704.24,1055.35 1707.64,1057.18C1711.03,1059.01 1714.78,1059.92 1718.89,1059.92Z" style="fill:rgb(35,31,32);fill-rule:nonzero;"/>
        </g>
        <g id="path1" transform="matrix(8.50048,0,0,8.48957,-51.2532,-93.73)">
            <path d="M30.43,38.988C30.421,38.993 30.414,38.998 30.409,39.003C30.409,39.003 30.416,38.998 30.43,38.988C30.969,38.672 37.421,38.763 37.421,38.763C36.992,39.896 36.438,40.318 36.438,40.318L26.477,40.318C24.439,38.518 21.52,36.808 21.52,36.808C21.125,35.608 21.174,34.622 21.174,34.622C23.533,35.459 28.575,39.24 28.575,39.24C30.679,37.229 38.053,36.702 38.053,36.702C38.461,36.89 37.91,37.284 37.91,37.284C32.291,37.813 30.627,38.851 30.43,38.988ZM28.533,28.267C25.851,27.409 23.468,26.716 21.927,24.133C18.225,17.926 23.589,10.844 30.533,11.345C36.221,11.756 40.092,18.332 37.69,23.467C36.418,26.187 33.694,27.617 30.933,28.4C31.366,28.967 31.757,29.58 31.971,30.267C32.182,30.946 32.294,32.005 31.958,32.661C30.633,35.25 26.582,33.27 27.324,30.533C27.55,29.698 28.093,28.996 28.533,28.267ZM29.479,29.3C27.926,29.666 28.158,32.899 30.128,32.342C31.61,31.923 30.605,29.035 29.479,29.3ZM28.933,13.105C26.02,13.463 23.116,15.398 22.387,18.4C21.347,22.681 25.311,27.202 29.733,26.694C31.951,26.44 34.647,25.351 35.818,23.333C38.631,18.491 34.458,12.426 28.933,13.105ZM26.267,21.067C25.015,21.594 23.775,20.608 24.221,19.205C24.564,18.124 25.617,18.699 26.167,18.079C26.769,17.401 25.893,16.141 26.404,15.376C26.778,14.815 27.954,15.104 28.533,15.067C28.48,15.428 28.366,15.773 28.31,16.133C28.139,17.235 28.955,17.718 29.861,17.077C30.502,16.624 30.29,16.071 30.67,15.524C31.026,15.014 32.709,15.01 33.063,15.524C33.507,16.17 33.069,17.527 33.067,18.267C31.888,18.143 30.195,19.142 31.048,20.531C31.645,21.504 32.32,20.772 32.986,21.216C33.386,21.483 33.342,23.434 33.063,23.786C32.857,24.046 32.427,23.998 32.133,24.021C30.213,24.166 30.881,21.765 29.201,21.645C27.534,21.526 28.931,23.496 28.439,24.051C28.208,24.312 27.761,24.193 27.467,24.15C25.607,23.878 26.657,22.325 26.267,21.067ZM13.2,16.933C11.192,19.254 8.785,22.377 7.87,25.333C7.609,26.176 7.376,27.117 7.339,28C7.316,28.522 7.557,29.23 7.381,29.719C7.15,30.361 5.853,30.814 5.258,30.47C4.181,29.848 5.677,27.112 6.033,26.4C7.57,23.327 9.191,20.381 11.22,17.6C11.762,16.857 12.764,15.032 13.865,15.138C14.465,15.195 14.727,15.909 14.875,16.4C15.291,17.782 15.461,19.256 15.761,20.667C16.239,22.913 16.935,26.3 19.2,27.396C20.302,27.929 21.741,27.867 22.933,27.867L22.933,28.133C20.949,28.384 17.937,29.449 16.31,27.823C15.5,27.012 15.363,24.593 14.382,24.176C13.264,23.7 10.973,24.533 9.733,24.533C10.13,23.165 11.691,23.298 12.933,23.212C13.286,23.188 13.866,23.301 14.145,23.024C14.502,22.671 14.056,21.727 13.944,21.333C13.542,19.924 13.23,18.403 13.2,16.933ZM34.267,28.133C36.198,28.676 39.134,29.074 40.795,27.683C42.396,26.342 42.981,23.554 43.41,21.6C43.734,20.124 44.019,18.622 44.54,17.2C44.682,16.813 44.86,15.993 45.362,15.938C46.428,15.82 47.458,17.685 47.98,18.4C49.999,21.167 51.839,24.051 53.2,27.2C53.526,27.955 54.946,30.461 54.034,31.196C53.405,31.705 51.891,30.963 51.719,30.265C51.523,29.468 51.984,28.587 51.765,27.733C50.852,24.17 48.374,20.477 46,17.733L44.933,24C46.336,23.843 48.767,23.845 49.333,25.333C48.281,25.33 47.172,25.196 46.133,25.023C45.731,24.957 45.229,24.701 44.84,24.939C44.413,25.2 44.332,25.965 44.174,26.4C43.872,27.228 43.429,28.164 42.786,28.782C41.299,30.213 38.218,29.307 36.4,28.985C35.67,28.855 34.703,28.794 34.267,28.133ZM32.266,29.228C31.93,28.625 32.682,28.873 32.682,28.873C33.536,29.302 40.505,32.63 40.505,32.63C43.313,41.082 35.14,44.118 35.14,44.118C34.525,44.37 34.782,43.957 34.782,43.957C39.167,40.518 39.616,34.143 39.616,34.143C35.024,31.35 32.266,29.228 32.266,29.228ZM27.574,29.037C27.574,29.037 25.537,30.249 20.479,32.068C20.479,32.068 19.55,38.817 23.301,42.81C23.301,42.81 23.47,43.266 22.919,42.896C22.919,42.896 15.642,38.766 19.736,30.547C19.736,30.547 26.315,28.855 27.237,28.606C27.237,28.606 28.023,28.513 27.574,29.037ZM20.986,34.112L21.12,33.728C21.424,33.587 22.256,33.901 22.256,33.901C23.85,34.444 26.634,36.42 26.634,36.42C29.134,38.162 28.533,38.263 28.533,38.263C28.385,38.495 27.105,37.416 27.105,37.416C25.07,35.789 22.935,34.728 22.242,34.423C21.608,34.144 20.986,34.112 20.986,34.112ZM42.122,36.445L48.014,36.397C49.193,36.489 48.5,36.957 48.5,36.957C46.968,36.914 42.192,36.966 42.192,36.966C42.192,36.966 41.848,36.99 41.791,36.69C41.734,36.391 42.122,36.445 42.122,36.445ZM41.618,38.638C45.896,38.489 52.118,38.566 52.118,38.566L53.365,39.319C54.074,39.813 53.7,39.888 53.7,39.888C49.32,40.258 41.111,40.196 41.111,40.196C41.395,39.051 41.618,38.638 41.618,38.638ZM6.28,33.853C5.639,33.892 6.079,33.522 6.079,33.522C12.705,32.122 17.512,33.413 17.512,33.413C17.173,34.653 17.415,35.14 17.415,35.14C13.056,33.792 6.28,33.853 6.28,33.853ZM7.953,32.667C7.47,32.742 8.052,32.284 8.052,32.284C8.98,31.712 11.701,31.752 11.701,31.752C16.588,31.694 17.203,32.23 17.203,32.23C18.208,32.855 17.139,32.656 17.139,32.656C14.61,32.16 11.617,32.216 11.617,32.216C8.402,32.252 7.953,32.667 7.953,32.667Z"/>
        </g>
    </g>
</svg>
