<svg width="20" height="22" viewBox="0 0 20 22" fill="none" xmlns="http://www.w3.org/2000/svg">
<path d="M4.84103 20.6155L4.34103 19.7495H4.34103L4.84103 20.6155ZM3.99338 19.9781L3.00103 19.8547H3.00103L3.99338 19.9781ZM3.32238 16.4128L2.45026 16.9022L2.45635 16.9128L3.32238 16.4128ZM2.30938 14.6078L3.1815 14.1184L3.17541 14.1078L2.30938 14.6078ZM18.2495 12.8741L18.7495 13.7401L18.2495 12.8741ZM18.1344 11.833L18.542 10.9199L18.542 10.9199L18.1344 11.833ZM15.4131 9.43224L14.5406 9.92113L14.547 9.93224L15.4131 9.43224ZM14.4513 7.71606L15.3238 7.22716L15.3174 7.21606L14.4513 7.71606ZM4.82924 5.11328L4.32924 4.24725L4.82924 5.11328ZM11.1858 20.5314L11.6858 21.3974L11.1858 20.5314ZM4.98573 20.1016C5.12901 18.9497 5.04218 17.3916 4.1884 15.9128L2.45635 16.9128C3.03091 17.908 3.10804 18.9944 3.00103 19.8547L4.98573 20.1016ZM4.19443 15.9234L3.18144 14.1184L1.43733 15.0972L2.45032 16.9022L4.19443 15.9234ZM18.542 10.9199C17.7633 10.5722 16.8646 9.94636 16.2791 8.93224L14.547 9.93224C15.3997 11.4091 16.6804 12.279 17.7267 12.7461L18.542 10.9199ZM16.2854 8.94338L15.3237 7.2272L13.579 8.20491L14.5407 9.92109L16.2854 8.94338ZM15.3174 7.21606C13.0925 3.36246 8.17457 2.02715 4.32924 4.24725L5.32924 5.9793C8.21023 4.31596 11.9082 5.31126 13.5853 8.21606L15.3174 7.21606ZM18.7495 13.7401C19.3909 13.3698 19.53 12.6867 19.4719 12.2163C19.414 11.7474 19.1342 11.1842 18.542 10.9199L17.7267 12.7461C17.5286 12.6577 17.4927 12.5075 17.487 12.4614C17.4811 12.4138 17.4807 12.1633 17.7495 12.0081L18.7495 13.7401ZM3.17541 14.1078C1.52665 11.2521 2.49708 7.61445 5.32924 5.9793L4.32924 4.24725C0.53273 6.43917 -0.753199 11.3033 1.44336 15.1078L3.17541 14.1078ZM4.34103 19.7495C4.61594 19.5907 4.83392 19.7243 4.86653 19.7495C4.8985 19.7741 5.01317 19.881 4.98573 20.1016L3.00103 19.8547C2.91966 20.5088 3.26953 21.0433 3.6445 21.3327C4.02011 21.6226 4.68887 21.858 5.34103 21.4815L4.34103 19.7495ZM17.7495 12.0081L4.34103 19.7495L5.34103 21.4815L18.7495 13.7401L17.7495 12.0081ZM11.6332 16.694C12.1831 17.6464 11.8423 18.9976 10.6858 19.6653L11.6858 21.3974C13.6919 20.2392 14.5272 17.7066 13.3653 15.694L11.6332 16.694ZM10.6858 19.6653C9.5293 20.3331 8.18872 19.9526 7.63886 19.0002L5.9068 20.0002C7.06876 22.0127 9.6797 22.5556 11.6858 21.3974L10.6858 19.6653ZM4.76997 2.60242C5.10247 3.17833 4.90515 3.91475 4.32924 4.24725L5.32924 5.9793C6.86174 5.09451 7.38681 3.13492 6.50202 1.60242L4.76997 2.60242ZM4.32924 4.24725C3.75333 4.57975 3.01691 4.38243 2.68441 3.80652L0.952359 4.80652C1.83715 6.33902 3.79674 6.86409 5.32924 5.9793L4.32924 4.24725ZM2.68441 3.80652C2.35191 3.23061 2.54923 2.49419 3.12514 2.16169L2.12514 0.429636C0.592644 1.31442 0.0675719 3.27402 0.952359 4.80652L2.68441 3.80652ZM3.12514 2.16169C3.70105 1.82918 4.43747 2.02651 4.76997 2.60242L6.50202 1.60242C5.61724 0.0699207 3.65764 -0.455152 2.12514 0.429636L3.12514 2.16169Z" fill="#5F4B32"/>
</svg>
