<svg width="21" height="21" viewBox="0 0 21 21" fill="none" xmlns="http://www.w3.org/2000/svg">
<g clip-path="url(#clip0_2013_5236)">
<path fill-rule="evenodd" clip-rule="evenodd" d="M10.441 0.0546875C16.1748 0.0546875 20.8299 4.70985 20.8299 10.4436C20.8299 16.1774 16.1748 20.8324 10.441 20.8324C4.70741 20.8324 0.0522461 16.1774 0.0522461 10.4436C0.0522461 4.70985 4.70741 0.0546875 10.441 0.0546875ZM10.437 1.41222C5.45027 1.41222 1.4016 5.46089 1.4016 10.4476C1.4016 15.4343 5.45027 19.483 10.437 19.483C15.4237 19.483 19.4724 15.4343 19.4724 10.4476C19.4724 5.46089 15.4237 1.41222 10.437 1.41222Z" fill="#5F4B32"/>
<path fill-rule="evenodd" clip-rule="evenodd" d="M6.76511 10.2576C6.94781 7.27437 8.11448 4.75958 10.2651 2.71317C10.2871 2.65181 10.326 2.59993 10.3818 2.55762C10.4206 2.97163 10.4336 3.38642 10.4207 3.80206C10.4324 4.41822 10.5491 5.01446 10.7707 5.59095C11.1188 6.33917 11.5077 7.06507 11.9373 7.76873C12.1609 8.29661 12.3293 8.84105 12.4429 9.40206C13.1364 8.74173 13.5901 7.93805 13.804 6.99095C15.2014 8.90685 15.5255 10.9939 14.7762 13.2521C15.195 13.1728 15.5839 13.0043 15.9429 12.7465C15.9585 15.1122 14.8956 16.8103 12.754 17.841C9.96528 18.8392 7.67083 18.178 5.87067 15.8576C5.13862 14.6003 4.81452 13.2392 4.89844 11.7743C4.85917 10.9677 4.94993 10.1769 5.17067 9.40206C5.54338 10.0461 6.02303 10.5905 6.60956 11.0354C6.66143 10.7762 6.71323 10.5169 6.76511 10.2576Z" fill="#5F4B32"/>
</g>
<defs>
<clipPath id="clip0_2013_5236">
<rect width="21" height="21" fill="white"/>
</clipPath>
</defs>
</svg>
