<svg width="18" height="18" viewBox="0 0 18 18" fill="none" xmlns="http://www.w3.org/2000/svg">
<g clip-path="url(#clip0_2014_5245)">
<path d="M14.5978 13.6762C14.486 13.6158 14.3497 13.6217 14.2435 13.6916C13.439 14.2204 12.6235 14.4885 11.8193 14.4885C11.3871 14.4885 11.0158 14.392 10.6828 14.1926C10.4564 14.0586 10.2461 13.8242 10.1707 13.6205C10.0975 13.4269 10.0983 12.9056 10.0994 12.1841L10.0998 7.785H13.7548C13.946 7.785 14.101 7.62999 14.101 7.43885V4.34783C14.101 4.15668 13.946 4.00168 13.7548 4.00168H10.0998V0.346154C10.0998 0.155008 9.94484 0 9.75363 0H7.29137C7.11635 0 6.96889 0.130638 6.94771 0.304408C6.84483 1.15103 6.65292 1.854 6.37676 2.3949C6.10745 2.92798 5.74309 3.39189 5.29323 3.77432C4.93281 4.08171 4.31583 4.37912 3.45931 4.65833C3.31683 4.70478 3.22046 4.83757 3.22046 4.98745V7.43892C3.22046 7.63006 3.3754 7.78507 3.56661 7.78507H5.57105V13.5081C5.57105 14.3514 5.6605 14.986 5.84465 15.4484C6.03227 15.9181 6.36534 16.3604 6.83486 16.7633C7.2967 17.159 7.85878 17.4685 8.50734 17.6839C9.13609 17.889 9.63684 18.0001 10.4812 18.0001C11.1949 18.0001 11.8753 17.9261 12.5036 17.78C13.1212 17.6358 13.8202 17.3811 14.5811 17.023C14.7025 16.9659 14.7799 16.8439 14.7799 16.7098V13.9809C14.7797 13.8536 14.7099 13.7366 14.5978 13.6762Z" fill="#5F4B32"/>
</g>
<defs>
<clipPath id="clip0_2014_5245">
<rect width="18" height="18" fill="white"/>
</clipPath>
</defs>
</svg>
