<svg width="20" height="43" viewBox="0 0 20 43" fill="none" xmlns="http://www.w3.org/2000/svg">
<g clip-path="url(#clip0_2013_5243)">
<path d="M4.88815 20.0676C4.88815 20.0676 5.19117 17.6543 4.88815 16.5593C4.58512 15.4644 3.87359 14.8977 2.81971 14.8315C1.76584 14.7652 0.262535 15.7546 0.000104964 18.4453C-0.236017 20.4886 -0.213893 22.5534 0.0659523 24.5912C0.289705 25.9232 0.935712 27.8229 2.05544 28.5743C3.17516 29.3256 4.55891 29.3524 5.57315 28.469C6.58739 27.5855 8.39276 23.1538 9.10429 22.1775C9.10429 22.1775 8.85401 25.4221 10.2374 26.5433C11.6209 27.6646 13.5298 27.3875 14.3609 25.8839C15.192 24.3803 17.1012 20.4631 18.1947 18.8674C19.2883 17.2716 20.0001 16.2298 19.4995 15.3869C18.999 14.5441 17.4573 14.6353 16.4562 15.5716C15.455 16.5078 13.0305 19.0917 13.0305 19.0917C13.0305 19.0917 13.5311 15.163 11.9632 14.5812C10.3953 13.9995 8.62994 14.5812 6.95658 17.0342L4.88815 20.0676Z" fill="#5F4B32"/>
</g>
<defs>
<clipPath id="clip0_2013_5243">
<rect width="20" height="43" fill="white"/>
</clipPath>
</defs>
</svg>
